<svg width="199" height="48" viewBox="0 0 199 48" fill="none" xmlns="http://www.w3.org/2000/svg">
<path d="M13.0012 10.0075V0L9.06994 1.43052C3.63987 3.40601 0 8.73797 0 14.7325V28.2699L13.0012 23.5448L29.6424 17.4945C33.2168 16.194 35.6077 12.6889 35.6077 8.75035V1.78351L13.0012 10.0075Z" fill="#F61C31"/>
<path d="M5.96534 30.5117C2.3909 31.8122 0 35.3173 0 39.262V46.2165L22.6065 37.9987V48.0062L26.5378 46.5757C31.9678 44.6002 35.6077 39.262 35.6077 33.2736V19.7363L22.6065 24.4614L5.96534 30.5117Z" fill="#F61C31"/>
<path d="M53.9022 6.88016V18.9189L64.2152 6.88016H70.918L61.4555 17.9218L71.5425 33.6824H64.917L58.9873 24.579C58.2558 23.4581 56.7094 23.3529 55.8411 24.3623L53.9022 26.6288V33.6824H48.377V6.88016H53.9022Z" fill="#F61C31"/>
<path d="M91.5737 22.9875V33.6824H86.3815V23.2909C86.3815 19.8911 85.1028 18.1943 82.5513 18.1943C81.2012 18.1943 80.1604 18.665 79.4229 19.6125C78.6854 20.5599 78.3167 21.8852 78.3167 23.6006V33.6824H73.1245V13.9771H78.1204C78.1264 14.8564 79.0601 15.3766 79.7679 14.8998C80.0117 14.7388 80.2615 14.5901 80.5232 14.4539C81.457 13.9832 82.6108 13.7417 83.9847 13.7417C86.1912 13.7417 88.0111 14.4601 89.4326 15.8906C90.86 17.3273 91.5737 19.6868 91.5737 22.9875Z" fill="#F61C31"/>
<path d="M98.6631 14.9927C100.096 14.1628 101.762 13.7479 103.653 13.7479C105.568 13.7479 107.257 14.1381 108.714 14.9184C110.177 15.6986 111.319 16.7948 112.14 18.2129C112.961 19.631 113.383 21.2969 113.413 23.2166C113.413 23.904 113.365 24.5233 113.264 25.0559H99.5314V25.2107C99.6563 26.6412 100.096 27.7683 100.858 28.5857C101.619 29.4032 102.66 29.8119 103.986 29.8119C105.039 29.8119 105.919 29.5766 106.621 29.0997C107.323 28.6291 107.781 27.9293 108.001 27.0128H113.121C112.925 28.3195 112.443 29.4899 111.688 30.5427C110.927 31.5892 109.922 32.4129 108.667 33.0136C107.412 33.6143 105.979 33.9177 104.361 33.9177C102.249 33.9177 100.43 33.509 98.895 32.6915C97.3606 31.8741 96.183 30.7037 95.3622 29.1803C94.5415 27.6568 94.1311 25.8919 94.1311 23.8669C94.1311 21.8233 94.5296 20.0398 95.3265 18.5163C96.1235 16.9929 97.2238 15.8225 98.6631 14.9927ZM106.799 18.7517C106.026 18.1014 105.051 17.7732 103.873 17.7732C102.743 17.7732 101.791 18.1138 101.018 18.7888C100.245 19.4638 99.7872 20.3804 99.6385 21.5322H108.221C108.042 20.3308 107.572 19.4019 106.799 18.7517Z" fill="#F61C31"/>
<path d="M134.069 33.6824H129.465C129.269 32.7163 128.198 32.2333 127.401 32.7782C127.164 32.9393 126.92 33.0879 126.664 33.2241C125.778 33.6824 124.701 33.9115 123.423 33.9115C121.216 33.9115 119.408 33.1993 118.01 31.7812C116.613 30.3631 115.911 27.9912 115.911 24.6657V13.9771H121.103V24.0217C121.103 25.8114 121.406 27.1614 122.007 28.0656C122.608 28.9759 123.536 29.428 124.785 29.428C126.087 29.428 127.092 28.9202 127.806 27.9107C128.52 26.9013 128.876 25.4894 128.876 23.6749V13.9771H134.069V33.6824Z" fill="#F61C31"/>
<path d="M156.217 18.5411C156.966 20.0769 157.341 21.8542 157.341 23.8731C157.341 25.8919 156.966 27.6568 156.217 29.1617C155.468 30.6727 154.433 31.8369 153.106 32.673C151.78 33.5028 150.27 33.9177 148.575 33.9177C146.142 33.9177 144.239 33.0074 142.865 31.1929V41.3552H137.673V13.9771H142.205C142.407 15.0484 143.59 15.5872 144.465 14.9803C144.691 14.8255 144.923 14.683 145.167 14.5468C146.16 14.008 147.308 13.7417 148.61 13.7417C150.305 13.7417 151.81 14.1566 153.118 14.9865C154.439 15.8225 155.468 17.0053 156.217 18.5411ZM152.078 23.7926C152.078 22.1081 151.649 20.7457 150.787 19.7115C149.931 18.6774 148.801 18.1572 147.397 18.1572C145.999 18.1572 144.881 18.6774 144.048 19.7115C143.216 20.7457 142.794 22.1081 142.794 23.7926C142.794 25.508 143.21 26.8827 144.048 27.9355C144.881 28.9821 145.999 29.5085 147.397 29.5085C148.795 29.5085 149.925 28.9759 150.787 27.9169C151.643 26.8518 152.078 25.477 152.078 23.7926Z" fill="#F61C31"/>
<path d="M178.847 33.6824H176.195C173.816 33.6824 172.65 32.611 172.698 30.4622C172.008 31.5892 171.163 32.4438 170.158 33.0321C169.153 33.6205 167.934 33.9115 166.512 33.9115C164.401 33.9115 162.7 33.4037 161.409 32.3943C160.119 31.3849 159.476 29.9605 159.476 28.1213C159.476 26.0281 160.22 24.4056 161.707 23.2724C163.194 22.1329 165.346 21.5632 168.172 21.5632H171.93V20.6033C171.93 19.7115 171.609 18.9994 170.973 18.473C170.336 17.9466 169.474 17.6865 168.398 17.6865C167.44 17.6865 166.655 17.9033 166.042 18.3367C165.43 18.7702 165.061 19.3586 164.936 20.1017H159.928C160.101 18.0828 160.957 16.5161 162.504 15.4076C164.05 14.2929 166.102 13.7417 168.653 13.7417C171.33 13.7417 173.399 14.3548 174.857 15.581C176.32 16.8071 177.045 18.5845 177.045 20.9129V27.855C177.045 28.338 177.146 28.6724 177.343 28.852C177.539 29.0316 177.848 29.1183 178.264 29.1183C178.592 29.1183 178.853 29.3908 178.853 29.7314V33.6824H178.847ZM168.13 25.1735C167.047 25.1735 166.209 25.3965 165.608 25.8424C165.007 26.2882 164.704 26.9199 164.704 27.7373C164.704 28.4247 164.954 28.9759 165.46 29.3846C165.965 29.7933 166.643 29.9977 167.505 29.9977C168.856 29.9977 169.926 29.5952 170.711 28.7901C171.496 27.9851 171.901 26.9075 171.924 25.5513V25.1673H168.13V25.1735Z" fill="#F61C31"/>
<path d="M188.494 28.1275L192.985 13.9771H198.545L190.148 36.4815C189.707 37.6829 189.291 38.6242 188.893 39.2992C188.5 39.9742 188.001 40.4882 187.4 40.835C186.799 41.1818 186.02 41.3552 185.062 41.3552H180.019V36.7911H182.892C183.552 36.7911 184.034 36.6735 184.325 36.4443C184.622 36.2152 184.902 35.7693 185.17 35.1005L185.645 33.7938L178.366 13.9771H183.891L188.494 28.1275Z" fill="#F61C31"/>
</svg>
